<?xml version="1.0" encoding="utf-8"?>
<!-- Generator: Adobe Illustrator 23.0.3, SVG Export Plug-In . SVG Version: 6.00 Build 0)  -->
<svg version="1.1" id="Layer_1" xmlns="http://www.w3.org/2000/svg" xmlns:xlink="http://www.w3.org/1999/xlink" x="0px" y="0px"
	 viewBox="0 0 2048 2048" style="enable-background:new 0 0 2048 2048;" xml:space="preserve">
<style type="text/css">
	.st0{fill:#FFFFFF;}
</style>
<g>
	<path class="st0" d="M135.8,1998c-47.3,0-85.8-38.5-85.8-85.8V135.8C50,88.5,88.5,50,135.8,50h1776.4c47.3,0,85.8,38.5,85.8,85.8
		v1776.4c0,47.3-38.5,85.8-85.8,85.8H135.8z"/>
	<path d="M1912.2,100c19.8,0,35.8,16.1,35.8,35.8v1776.4c0,19.8-16.1,35.8-35.8,35.8H135.8c-19.8,0-35.8-16.1-35.8-35.8V135.8
		c0-19.8,16.1-35.8,35.8-35.8H1912.2 M1912.2,0H135.8C60.8,0,0,60.8,0,135.8v1776.4c0,75,60.8,135.8,135.8,135.8h1776.4
		c75,0,135.8-60.8,135.8-135.8V135.8C2048,60.8,1987.2,0,1912.2,0L1912.2,0z"/>
</g>
<g>
	<path class="st0" d="M1024.5,1648c-70.3,0-138.4-13.8-202.6-40.9c-62-26.2-117.6-63.8-165.5-111.6
		c-47.8-47.8-85.4-103.5-111.6-165.5c-27.1-64.1-40.9-132.3-40.9-202.6s13.8-138.4,40.9-202.6c26.2-62,63.8-117.6,111.6-165.5
		s103.5-85.4,165.5-111.6c64.1-27.1,132.3-40.9,202.6-40.9s138.4,13.8,202.6,40.9c62,26.2,117.6,63.8,165.5,111.6
		c47.8,47.8,85.4,103.5,111.6,165.5c27.1,64.1,40.9,132.3,40.9,202.6s-13.8,138.4-40.9,202.6c-26.2,62-63.8,117.6-111.6,165.5
		c-47.8,47.8-103.5,85.4-165.5,111.6C1162.9,1634.2,1094.8,1648,1024.5,1648z"/>
	<path d="M1024.5,657c63.6,0,125.2,12.4,183.1,36.9c56,23.7,106.3,57.6,149.6,100.9c43.2,43.2,77.2,93.6,100.9,149.6
		c24.5,57.9,36.9,119.5,36.9,183.1s-12.4,125.2-36.9,183.1c-23.7,56-57.6,106.3-100.9,149.6c-43.2,43.2-93.6,77.2-149.6,100.9
		c-57.9,24.5-119.5,36.9-183.1,36.9s-125.2-12.4-183.1-36.9c-56-23.7-106.3-57.6-149.6-100.9c-43.2-43.2-77.2-93.6-100.9-149.6
		c-24.5-57.9-36.9-119.5-36.9-183.1s12.4-125.2,36.9-183.1c23.7-56,57.6-106.3,100.9-149.6c43.2-43.2,93.6-77.2,149.6-100.9
		C899.3,669.4,960.9,657,1024.5,657 M1024.5,557C709.4,557,454,812.4,454,1127.5S709.4,1698,1024.5,1698s570.5-255.4,570.5-570.5
		S1339.6,557,1024.5,557L1024.5,557z"/>
</g>
<g>
	<path class="st0" d="M136.8,438C89.5,438,51,399.5,51,352.2V135.8C51,88.5,89.5,50,136.8,50h1776.4c47.3,0,85.8,38.5,85.8,85.8
		v216.4c0,47.3-38.5,85.8-85.8,85.8H136.8z"/>
	<path d="M1913.2,100c19.8,0,35.8,16.1,35.8,35.8v216.4c0,19.8-16.1,35.8-35.8,35.8H136.8c-19.8,0-35.8-16.1-35.8-35.8V135.8
		c0-19.8,16.1-35.8,35.8-35.8H1913.2 M1913.2,0H136.8C61.8,0,1,60.8,1,135.8v216.4C1,427.2,61.8,488,136.8,488h1776.4
		c75,0,135.8-60.8,135.8-135.8V135.8C2049,60.8,1988.2,0,1913.2,0L1913.2,0z"/>
</g>
<g>
</g>
<g>
</g>
<g>
</g>
<g>
</g>
<g>
</g>
<g>
</g>
<g>
</g>
<g>
</g>
<g>
</g>
<g>
</g>
<g>
</g>
<g>
</g>
<g>
</g>
<g>
</g>
<g>
</g>
</svg>
