<?xml version="1.0" encoding="utf-8"?>
<!-- Generator: Adobe Illustrator 23.0.3, SVG Export Plug-In . SVG Version: 6.00 Build 0)  -->
<svg version="1.1" id="Layer_1" xmlns="http://www.w3.org/2000/svg" xmlns:xlink="http://www.w3.org/1999/xlink" x="0px" y="0px"
	 viewBox="0 0 2048 2048" style="enable-background:new 0 0 2048 2048;" xml:space="preserve">
<style type="text/css">
	.st0{fill:#FFFFFF;}
</style>
<g>
	<path class="st0" d="M232,1998c-100.4,0-182-81.6-182-182V256c0-113.6,92.4-206,206-206h1536c113.6,0,206,92.4,206,206v1560
		c0,100.4-81.6,182-182,182H232z"/>
	<path d="M1792,100c41.7,0,80.8,16.2,110.3,45.7S1948,214.3,1948,256v1560c0,35.3-13.7,68.4-38.7,93.3s-58.1,38.7-93.3,38.7H232
		c-35.3,0-68.4-13.7-93.3-38.7c-24.9-24.9-38.7-58.1-38.7-93.3V256c0-41.7,16.2-80.8,45.7-110.3S214.3,100,256,100H1792 M1792,0H256
		C114.6,0,0,114.6,0,256v1560c0,128.1,103.9,232,232,232h1584c128.1,0,232-103.9,232-232V256C2048,114.6,1933.4,0,1792,0L1792,0z"/>
</g>
<g>
	<path class="st0" d="M1023.5,1759c-70.3,0-138.4-13.8-202.6-40.9c-62-26.2-117.6-63.8-165.5-111.6
		c-47.8-47.8-85.4-103.5-111.6-165.5c-27.1-64.1-40.9-132.3-40.9-202.6s13.8-138.4,40.9-202.6c26.2-62,63.8-117.6,111.6-165.5
		s103.5-85.4,165.5-111.6c64.1-27.1,132.3-40.9,202.6-40.9s138.4,13.8,202.6,40.9c62,26.2,117.6,63.8,165.5,111.6
		c47.8,47.8,85.4,103.5,111.6,165.5c27.1,64.1,40.9,132.3,40.9,202.6s-13.8,138.4-40.9,202.6c-26.2,62-63.8,117.6-111.6,165.5
		c-47.8,47.8-103.5,85.4-165.5,111.6C1161.9,1745.2,1093.8,1759,1023.5,1759z"/>
	<path d="M1023.5,768c63.6,0,125.2,12.4,183.1,36.9c56,23.7,106.3,57.6,149.6,100.9c43.2,43.2,77.2,93.6,100.9,149.6
		c24.5,57.9,36.9,119.5,36.9,183.1s-12.4,125.2-36.9,183.1c-23.7,56-57.6,106.3-100.9,149.6c-43.2,43.2-93.6,77.2-149.6,100.9
		c-57.9,24.5-119.5,36.9-183.1,36.9s-125.2-12.4-183.1-36.9c-56-23.7-106.3-57.6-149.6-100.9c-43.2-43.2-77.2-93.6-100.9-149.6
		c-24.5-57.9-36.9-119.5-36.9-183.1s12.4-125.2,36.9-183.1c23.7-56,57.6-106.3,100.9-149.6c43.2-43.2,93.6-77.2,149.6-100.9
		C898.3,780.4,959.9,768,1023.5,768 M1023.5,668C708.4,668,453,923.4,453,1238.5S708.4,1809,1023.5,1809s570.5-255.4,570.5-570.5
		S1338.6,668,1023.5,668L1023.5,668z"/>
</g>
<g>
	<path class="st0" d="M232,569c-100.4,0-182-81.6-182-182V256c0-113.6,92.4-206,206-206h1536c113.6,0,206,92.4,206,206v131
		c0,100.4-81.6,182-182,182H232z"/>
	<path d="M1792,100c41.7,0,80.8,16.2,110.3,45.7S1948,214.3,1948,256v131c0,35.3-13.7,68.4-38.7,93.3
		c-24.9,24.9-58.1,38.7-93.3,38.7H232c-35.3,0-68.4-13.7-93.3-38.7C113.7,455.4,100,422.3,100,387V256c0-41.7,16.2-80.8,45.7-110.3
		S214.3,100,256,100H1792 M1792,0H256C114.6,0,0,114.6,0,256v131c0,128.1,103.9,232,232,232h1584c128.1,0,232-103.9,232-232V256
		C2048,114.6,1933.4,0,1792,0L1792,0z"/>
</g>
<g>
	<circle cx="1221.5" cy="1093.5" r="175.5"/>
</g>
<g>
</g>
<g>
</g>
<g>
</g>
<g>
</g>
<g>
</g>
<g>
</g>
<g>
</g>
<g>
</g>
<g>
</g>
<g>
</g>
<g>
</g>
<g>
</g>
<g>
</g>
<g>
</g>
<g>
</g>
</svg>
