<?xml version="1.0" encoding="utf-8"?>
<!-- Generator: Adobe Illustrator 23.0.3, SVG Export Plug-In . SVG Version: 6.00 Build 0)  -->
<svg version="1.1" id="Layer_1" xmlns="http://www.w3.org/2000/svg" xmlns:xlink="http://www.w3.org/1999/xlink" x="0px" y="0px"
	 viewBox="0 0 2048 2048" style="enable-background:new 0 0 2048 2048;" xml:space="preserve">
<style type="text/css">
	.st0{fill:#FFFFFF;}
	.st1{fill:none;stroke:#000000;stroke-width:100;stroke-linecap:round;stroke-miterlimit:10;}
</style>
<g>
	<path class="st0" d="M232,1998c-100.4,0-182-81.6-182-182V256c0-113.6,92.4-206,206-206h1536c113.6,0,206,92.4,206,206v1560
		c0,100.4-81.6,182-182,182H232z"/>
	<path d="M1792,100c41.7,0,80.8,16.2,110.3,45.7S1948,214.3,1948,256v1560c0,35.3-13.7,68.4-38.7,93.3s-58.1,38.7-93.3,38.7H232
		c-35.3,0-68.4-13.7-93.3-38.7c-24.9-24.9-38.7-58.1-38.7-93.3V256c0-41.7,16.2-80.8,45.7-110.3S214.3,100,256,100H1792 M1792,0H256
		C114.6,0,0,114.6,0,256v1560c0,128.1,103.9,232,232,232h1584c128.1,0,232-103.9,232-232V256C2048,114.6,1933.4,0,1792,0L1792,0z"/>
</g>
<g>
	<path class="st0" d="M1026.1,1440.7c-49.3,0-97-9.7-142.1-28.7c-43.5-18.4-82.5-44.7-116-78.2c-33.5-33.5-59.9-72.6-78.2-116
		c-19-44.9-28.7-92.8-28.7-142.1s9.7-97,28.7-142.1c18.4-43.5,44.7-82.5,78.2-116c33.5-33.6,72.6-59.9,116-78.2
		c44.9-19,92.8-28.7,142.1-28.7c49.3,0,97,9.7,142.1,28.7c43.5,18.4,82.5,44.7,116,78.2c33.5,33.5,59.9,72.6,78.2,116
		c19,44.9,28.7,92.8,28.7,142.1s-9.7,97-28.7,142.1c-18.4,43.5-44.7,82.5-78.2,116c-33.5,33.5-72.6,59.9-116,78.2
		C1123.1,1431,1075.4,1440.7,1026.1,1440.7z"/>
	<path d="M1026.1,745.8c44.6,0,87.8,8.7,128.4,25.9c39.3,16.6,74.5,40.4,104.9,70.7c30.3,30.3,54.1,65.6,70.7,104.9
		c17.2,40.6,25.9,83.8,25.9,128.4c0,44.6-8.7,87.8-25.9,128.4c-16.6,39.3-40.4,74.5-70.7,104.9c-30.3,30.3-65.6,54.1-104.9,70.7
		c-40.6,17.2-83.8,25.9-128.4,25.9c-44.6,0-87.8-8.7-128.4-25.9c-39.3-16.6-74.5-40.4-104.9-70.7c-30.3-30.3-54.1-65.6-70.7-104.9
		c-17.2-40.6-25.9-83.8-25.9-128.4c0-44.6,8.7-87.8,25.9-128.4c16.6-39.3,40.4-74.5,70.7-104.9c30.3-30.3,65.6-54.1,104.9-70.7
		C938.3,754.5,981.5,745.8,1026.1,745.8 M1026.1,675.7c-220.9,0-400,179.1-400,400s179.1,400,400,400s400-179.1,400-400
		S1247,675.7,1026.1,675.7L1026.1,675.7z"/>
</g>
<g>
	<path class="st0" d="M232,569c-100.4,0-182-81.6-182-182V256c0-113.6,92.4-206,206-206h1536c113.6,0,206,92.4,206,206v131
		c0,100.4-81.6,182-182,182H232z"/>
	<path d="M1792,100c41.7,0,80.8,16.2,110.3,45.7S1948,214.3,1948,256v131c0,35.3-13.7,68.4-38.7,93.3
		c-24.9,24.9-58.1,38.7-93.3,38.7H232c-35.3,0-68.4-13.7-93.3-38.7c-25-24.9-38.7-58-38.7-93.3V256c0-41.7,16.2-80.8,45.7-110.3
		S214.3,100,256,100H1792 M1792,0H256C114.6,0,0,114.6,0,256v131c0,128.1,103.9,232,232,232h1584c128.1,0,232-103.9,232-232V256
		C2048,114.6,1933.4,0,1792,0L1792,0z"/>
</g>
<g>
	<circle cx="1146.7" cy="981.4" r="179.5"/>
</g>
<path class="st1" d="M626.1,1566.1c0,0,427.1,400.8,851.1,0"/>
<path d="M1324.4,1693.8l121.1-60.2c35.9,72.2,10.8,158.8-55.7,191.8c-66.4,33-150.6,0.8-186.5-71.4L1324.4,1693.8z"/>
</svg>
